<svg width="18" height="18" viewBox="0 0 18 18" fill="none" xmlns="http://www.w3.org/2000/svg">
<path fill-rule="evenodd" clip-rule="evenodd" d="M17.5236 15.2788L14.6966 12.4412C15.4378 11.2871 15.8719 9.92117 15.8719 8.46C15.8719 4.36235 12.5578 1.04823 8.4601 1.04823C4.36246 1.04823 1.04834 4.36235 1.04834 8.46C1.04834 12.5576 4.36246 15.8718 8.4601 15.8718C9.93187 15.8718 11.2978 15.4271 12.4413 14.6965L15.2789 17.5235C15.5648 17.8094 15.9672 17.9894 16.4013 17.9894C17.2801 17.9894 17.9895 17.28 17.9895 16.4012C17.9895 15.9671 17.8095 15.5647 17.5236 15.2788ZM8.46008 13.7541C5.53773 13.7541 3.16596 11.3824 3.16596 8.46C3.16596 5.53765 5.53773 3.16588 8.46008 3.16588C11.3824 3.16588 13.7542 5.53765 13.7542 8.46C13.7542 11.3824 11.3824 13.7541 8.46008 13.7541Z" fill="#272343"/>
</svg>
