<svg width="89" height="26" viewBox="0 0 89 26" fill="none" xmlns="http://www.w3.org/2000/svg">
<g clip-path="url(#clip0_582_234)">
<path fill-rule="evenodd" clip-rule="evenodd" d="M4.59186 0C4.59186 4.64475 8.3861 8.42576 13.0507 8.42576V13C5.84339 13 0 7.17864 0 0H4.59186ZM13.0507 13V17.5742C8.3861 17.5742 4.59186 21.3531 4.59186 26H0C0 18.8214 5.84339 13 13.0507 13ZM26 8.42576C21.3354 8.42576 17.5412 4.64475 17.5412 0H12.9493C12.9493 7.17864 18.7927 13 26 13C18.7927 13 12.9493 18.8214 12.9493 26H17.5412C17.5412 21.3531 21.3354 17.5742 26 17.5742V13V8.42576Z" fill="black"/>
<path fill-rule="evenodd" clip-rule="evenodd" d="M65.0529 15.177C65.0529 14.5556 65.5597 14.0466 66.181 14.0466C66.8024 14.0466 67.3114 14.5534 67.3114 15.177C67.3114 15.8005 66.8046 16.3051 66.181 16.3051C65.5575 16.3051 65.0529 15.7807 65.0529 15.177ZM65.2975 17.5346H67.0646V25.718H65.2975V17.5346ZM44.6605 25.718H42.7788V17.55L39.2931 23.3119H39.0639L35.5781 17.5346V25.718H33.6964V14.2603H35.7258L39.1785 19.9892L42.6488 14.2603H44.6627V25.718H44.6605ZM46.1809 21.6263C46.1809 19.1871 48.111 17.3209 50.5017 17.3209C52.8924 17.3209 54.8226 19.1871 54.8226 21.6263C54.8226 24.0654 52.9078 25.9317 50.5017 25.9317C48.0956 25.9317 46.1809 24.05 46.1809 21.6263ZM53.0554 21.6263C53.0554 20.1368 51.9427 19.0395 50.5017 19.0395C49.0607 19.0395 47.948 20.1368 47.948 21.6263C47.948 23.1158 49.0607 24.2131 50.5017 24.2131C51.9427 24.2131 53.0554 23.1158 53.0554 21.6263ZM63.6074 25.718V20.6942V20.692C63.6074 18.5658 62.2986 17.3209 60.4654 17.3209C59.3527 17.3209 58.4691 17.7307 57.9293 18.5812V17.5346H56.1622V25.718H57.9293V21.331C57.9293 19.6609 58.8944 18.9734 60.0071 18.9734C61.1198 18.9734 61.8403 19.6278 61.8403 20.8727V25.718H63.6074ZM71.2686 23.1642V19.2356H73.298V17.5346H71.2686V15.2431L69.5015 15.7675V17.5346H67.9966V19.2356H69.5015V23.1642C69.5015 25.2927 70.5812 26.0463 73.298 25.718V24.1293C71.9561 24.1954 71.2686 24.2109 71.2686 23.1642ZM73.9105 21.6263C73.9105 19.1871 75.8429 17.3209 78.2314 17.3209C80.6198 17.3209 82.5522 19.1871 82.5522 21.6263C82.5522 24.0654 80.6375 25.9317 78.2314 25.9317C75.8253 25.9317 73.9105 24.05 73.9105 21.6263ZM80.7851 21.6263C80.7851 20.1368 79.6724 19.0395 78.2314 19.0395C76.7903 19.0395 75.6776 20.1368 75.6776 21.6263C75.6776 23.1158 76.7903 24.2131 78.2314 24.2131C79.6724 24.2131 80.7851 23.1158 80.7851 21.6263ZM88.1775 19.3017V17.3869C87.1463 17.3869 86.1481 17.7968 85.6568 18.9095V17.5346H83.8897V25.718H85.6568V21.5932C85.6568 19.76 87.0163 19.2202 88.1775 19.3017Z" fill="black"/>
<path fill-rule="evenodd" clip-rule="evenodd" d="M33.2822 5.96458C33.2822 2.67051 35.9527 0 39.249 0C42.543 0 45.2136 2.67051 45.2113 5.96458C45.2113 7.22712 44.8191 8.39712 44.1493 9.3622L45.4317 10.6446L43.9268 12.1495L42.6444 10.8671C41.6793 11.5369 40.5093 11.9292 39.2468 11.9292C35.9527 11.9292 33.2822 9.25864 33.2822 5.96458ZM35.4173 5.96678C35.4173 8.08203 37.1315 9.79848 39.249 9.79848C41.3642 9.79848 43.0807 8.08203 43.0807 5.96678C43.0807 3.85153 41.3642 2.13508 39.249 2.13508C37.1337 2.13508 35.4173 3.85153 35.4173 5.96678ZM59.6766 0.220343H61.8095V11.711H59.6766V0.220343ZM68.8427 0.220343H63.9424V11.711H68.8427C72.0156 11.711 74.5869 9.13966 74.5869 5.96678C74.5869 2.7939 72.0156 0.220343 68.8427 0.220343ZM68.9 9.60238H66.0951L66.0708 2.3356L68.9 2.32678C70.9095 2.32678 72.4563 3.95509 72.4563 5.96458C72.4563 7.97407 70.9095 9.60238 68.9 9.60238ZM52.2248 9.79848C53.9831 9.79848 55.4153 8.38611 55.4153 6.6278V0.220343H57.5481V6.60797C57.5481 9.54729 55.1641 11.9314 52.2248 11.9314C49.2854 11.9314 46.9014 9.54729 46.9014 6.60797V0.220343H49.0342V6.6278C49.0342 8.38611 50.4665 9.79848 52.2248 9.79848Z" fill="black"/>
</g>
<defs>
<clipPath id="clip0_582_234">
<rect width="88.4" height="26" fill="white"/>
</clipPath>
</defs>
</svg>
