<svg width="14" height="14" viewBox="0 0 14 14" fill="none" xmlns="http://www.w3.org/2000/svg">
<g clip-path="url(#clip0_1322_2614)">
<path fill-rule="evenodd" clip-rule="evenodd" d="M0 4.53695C2.50102 4.53695 4.53695 2.5022 4.53695 0H7C7 3.86542 3.86542 7 0 7V4.53695ZM7 14H4.53695C4.53695 11.499 2.5022 9.46305 0 9.46305V7C3.86542 7 7 10.1346 7 14ZM14 7V9.46305C11.499 9.46305 9.46305 11.4978 9.46305 14H7C7 10.1346 10.1346 7 14 7ZM14 7V4.53695C11.4978 4.53695 9.46305 2.5022 9.46305 0H7C7 3.86542 10.1346 7 14 7Z" fill="white"/>
</g>
<defs>
<clipPath id="clip0_1322_2614">
<rect width="14" height="14" fill="white"/>
</clipPath>
</defs>
</svg>
